<svg width="29" height="24" viewBox="0 0 29 24" fill="none" xmlns="http://www.w3.org/2000/svg">
<path fill-rule="evenodd" clip-rule="evenodd" d="M14.3801 8.38196C14.1229 5.9198 12.031 4.00009 9.48851 4.00009C8.18357 3.99462 6.92727 4.50777 6.00043 5.4261C5.1959 6.22325 4.69715 7.26869 4.57952 8.38196H4.57864C2.79724 8.38196 1.30058 9.68312 0.880106 11.9424L0.119222 17.8124C-0.52845 22.1106 1.49286 24 5.44875 24H13.546C17.2043 24 19.3909 21.8703 18.9419 18.0483L18.1564 11.9817C17.6528 9.69437 16.1947 8.38196 14.4516 8.38196H14.3801ZM12.9138 8.38196C12.6653 6.72154 11.2261 5.44782 9.48545 5.44781C8.56439 5.44396 7.67973 5.80531 7.02708 6.45197C6.49719 6.97699 6.15567 7.65499 6.04594 8.38196H12.9138ZM4.57864 9.82969H14.4516C15.4739 9.82969 16.3719 10.638 16.7244 12.2299L17.468 17.9973C17.9105 21.0658 16.4375 22.5523 13.546 22.5523H5.44875C2.31775 22.5523 1.05418 21.3711 1.56021 18.0122L2.31697 12.1666C2.60614 10.6189 3.51393 9.82969 4.57864 9.82969ZM12.3652 12.5164C12.767 12.5164 13.0927 12.8405 13.0927 13.2403C13.0927 13.6068 12.819 13.9096 12.4639 13.9576L12.3652 13.9642H12.3208C11.919 13.9642 11.5933 13.6401 11.5933 13.2403C11.5933 12.8738 11.867 12.571 12.2221 12.5231L12.3208 12.5164H12.3652ZM7.437 13.2403C7.437 12.8405 7.11129 12.5164 6.70951 12.5164H6.66512L6.5664 12.5231C6.21131 12.571 5.93762 12.8738 5.93762 13.2403C5.93762 13.6401 6.26333 13.9642 6.66512 13.9642H6.70951L6.80822 13.9576C7.16331 13.9096 7.437 13.6068 7.437 13.2403Z" fill="#200E32"/>
<g filter="url(#filter0_d_1_52)">
<path d="M21.1256 0C22.7525 0 24.0713 1.3123 24.0713 2.93111C24.0713 4.41502 22.9631 5.64138 21.5253 5.83547L21.1256 5.86223H20.9458C19.3189 5.86223 18 4.54992 18 2.93111C18 1.4472 19.1082 0.220846 20.5461 0.0267576L20.9458 0H21.1256Z" fill="#FF0363"/>
</g>
<defs>
<filter id="filter0_d_1_52" x="14" y="0" width="14.0714" height="13.8622" filterUnits="userSpaceOnUse" color-interpolation-filters="sRGB">
<feFlood flood-opacity="0" result="BackgroundImageFix"/>
<feColorMatrix in="SourceAlpha" type="matrix" values="0 0 0 0 0 0 0 0 0 0 0 0 0 0 0 0 0 0 127 0" result="hardAlpha"/>
<feOffset dy="4"/>
<feGaussianBlur stdDeviation="2"/>
<feColorMatrix type="matrix" values="0 0 0 0 1 0 0 0 0 0.0117647 0 0 0 0 0.388235 0 0 0 0.15 0"/>
<feBlend mode="normal" in2="BackgroundImageFix" result="effect1_dropShadow_1_52"/>
<feBlend mode="normal" in="SourceGraphic" in2="effect1_dropShadow_1_52" result="shape"/>
</filter>
</defs>
</svg>
