<svg width="18" height="124" viewBox="0 0 18 124" fill="none" xmlns="http://www.w3.org/2000/svg">
<path d="M8 4.40625C6 4.40625 4.40625 6.03125 4.40625 8C4.40625 10 6 11.5938 8 11.5938C9.96875 11.5938 11.5937 10 11.5937 8C11.5937 6.03125 9.96875 4.40625 8 4.40625ZM8 10.3438C6.71875 10.3438 5.65625 9.3125 5.65625 8C5.65625 6.71875 6.6875 5.6875 8 5.6875C9.28125 5.6875 10.3125 6.71875 10.3125 8C10.3125 9.3125 9.28125 10.3438 8 10.3438ZM12.5625 4.28125C12.5625 3.8125 12.1875 3.4375 11.7188 3.4375C11.25 3.4375 10.875 3.8125 10.875 4.28125C10.875 4.75 11.25 5.125 11.7188 5.125C12.1875 5.125 12.5625 4.75 12.5625 4.28125ZM14.9375 5.125C14.875 4 14.625 3 13.8125 2.1875C13 1.375 12 1.125 10.875 1.0625C9.71875 1 6.25 1 5.09375 1.0625C3.96875 1.125 3 1.375 2.15625 2.1875C1.34375 3 1.09375 4 1.03125 5.125C0.96875 6.28125 0.96875 9.75 1.03125 10.9062C1.09375 12.0312 1.34375 13 2.15625 13.8438C3 14.6562 3.96875 14.9062 5.09375 14.9688C6.25 15.0312 9.71875 15.0313 10.875 14.9688C12 14.9063 13 14.6563 13.8125 13.8438C14.625 13 14.875 12.0313 14.9375 10.9063C15 9.75 15 6.28125 14.9375 5.125ZM13.4375 12.125C13.2187 12.75 12.7187 13.2188 12.125 13.4688C11.1875 13.8438 9 13.75 8 13.75C6.96875 13.75 4.78125 13.8438 3.875 13.4688C3.25 13.2188 2.78125 12.75 2.53125 12.125C2.15625 11.2188 2.25 9.03125 2.25 8C2.25 7 2.15625 4.8125 2.53125 3.875C2.78125 3.28125 3.25 2.8125 3.875 2.5625C4.78125 2.1875 6.96875 2.28125 8 2.28125C9 2.28125 11.1875 2.1875 12.125 2.5625C12.7188 2.78125 13.1875 3.28125 13.4375 3.875C13.8125 4.8125 13.7187 7 13.7187 8C13.7187 9.03125 13.8125 11.2188 13.4375 12.125Z" fill="#540423"/>
<path d="M15.3438 40.75C15.9688 40.2812 16.5312 39.7188 16.9688 39.0625C16.4062 39.3125 15.75 39.5 15.0938 39.5625C15.7812 39.1562 16.2812 38.5312 16.5312 37.75C15.9062 38.125 15.1875 38.4062 14.4688 38.5625C13.8438 37.9062 13 37.5312 12.0625 37.5312C10.25 37.5312 8.78125 39 8.78125 40.8125C8.78125 41.0625 8.8125 41.3125 8.875 41.5625C6.15625 41.4062 3.71875 40.0938 2.09375 38.125C1.8125 38.5938 1.65625 39.1562 1.65625 39.7812C1.65625 40.9062 2.21875 41.9062 3.125 42.5C2.59375 42.4688 2.0625 42.3438 1.625 42.0938V42.125C1.625 43.7188 2.75 45.0312 4.25 45.3438C4 45.4062 3.6875 45.4688 3.40625 45.4688C3.1875 45.4688 3 45.4375 2.78125 45.4062C3.1875 46.7188 4.40625 47.6562 5.84375 47.6875C4.71875 48.5625 3.3125 49.0938 1.78125 49.0938C1.5 49.0938 1.25 49.0625 1 49.0312C2.4375 49.9688 4.15625 50.5 6.03125 50.5C12.0625 50.5 15.3437 45.5312 15.3438 41.1875C15.3438 41.0312 15.3438 40.9062 15.3438 40.75Z" fill="url(#paint0_linear_1_73)"/>
<path d="M4.125 86L4.125 76.6562H1.21875L1.21875 86H4.125ZM2.65625 75.4062C3.59375 75.4062 4.34375 74.625 4.34375 73.6875C4.34375 72.7812 3.59375 72.0312 2.65625 72.0312C1.75 72.0312 1 72.7812 1 73.6875C1 74.625 1.75 75.4062 2.65625 75.4062ZM14.9687 86H15V80.875C15 78.375 14.4375 76.4375 11.5 76.4375C10.0938 76.4375 9.15625 77.2188 8.75 77.9375H8.71875V76.6562H5.9375L5.9375 86H8.84375L8.84375 81.375C8.84375 80.1562 9.0625 79 10.5625 79C12.0625 79 12.0937 80.375 12.0937 81.4688V86H14.9687Z" fill="#540423"/>
<path d="M3.21875 112.469L3.21875 119.156C3.25 119.375 3.1875 119.625 3.03125 119.812L1.4375 121.719V121.969H5.9375L5.9375 121.719L4.34375 119.812C4.15625 119.625 4.09375 119.375 4.125 119.156L4.125 113.375L8.0625 122H8.53125L11.9375 113.375L11.9375 120.219C11.9375 120.406 11.9375 120.438 11.8125 120.562L10.5937 121.75V122H16.5312V121.75L15.3437 120.594C15.25 120.531 15.1875 120.375 15.2187 120.25L15.2188 111.75C15.1875 111.625 15.25 111.5 15.3438 111.438L16.5312 110.281V110H12.375L9.375 117.438L6 110H1.625V110.281L3.03125 111.969C3.15625 112.094 3.25 112.281 3.21875 112.469Z" fill="#540423"/>
<defs>
<linearGradient id="paint0_linear_1_73" x1="1" y1="36" x2="21.5074" y2="38.6734" gradientUnits="userSpaceOnUse">
<stop stop-color="#FF0061"/>
<stop offset="1" stop-color="#FF4B90"/>
</linearGradient>
</defs>
</svg>
