<svg width="112" height="26" viewBox="0 0 112 26" fill="none" xmlns="http://www.w3.org/2000/svg">
<path d="M0.895357 25V2.125H18.9339V6.99411H6.51607V11.1116H14.7184V15.8173H6.51607V20.1309H19.0646V25H0.895357ZM27.1263 7.71303V17.6473C27.1263 18.5841 27.4095 19.3466 27.9759 19.9348C28.5642 20.5012 29.3267 20.7845 30.2634 20.7845C30.9388 20.7845 31.5379 20.6646 32.0608 20.425C32.5836 20.1854 33.0193 19.8477 33.3679 19.412V7.71303H38.6618V25H33.3679V23.8236C32.7361 24.3029 32.0172 24.6732 31.2111 24.9346C30.4268 25.1961 29.599 25.3268 28.7275 25.3268C26.7015 25.3268 25.0458 24.6732 23.7604 23.3661C22.475 22.0589 21.8324 20.3923 21.8324 18.3662V7.71303H27.1263Z" fill="#FF0363"/>
<path d="M42.4306 25V7.71303H47.7245V9.445C48.2909 8.76964 48.9554 8.24678 49.7179 7.87643C50.4804 7.50607 51.3301 7.32089 52.2668 7.32089C52.7679 7.34268 53.1709 7.38625 53.4759 7.45161C53.7809 7.49518 54.0424 7.59321 54.2602 7.74571V12.3534C53.9117 12.2009 53.5195 12.0811 53.0838 11.9939C52.6481 11.885 52.2015 11.8305 51.744 11.8305C50.9161 11.8305 50.1427 12.0266 49.4238 12.4187C48.7267 12.8109 48.1602 13.3446 47.7245 14.02V25H42.4306ZM72.237 22.7125C71.1477 23.6275 70.0258 24.292 68.8711 24.7059C67.7383 25.1198 66.4529 25.3268 65.0151 25.3268C63.7079 25.3268 62.477 25.098 61.3224 24.6405C60.1677 24.183 59.1656 23.5512 58.316 22.7452C57.4881 21.9391 56.8236 20.9914 56.3226 19.9021C55.8433 18.7911 55.6036 17.6146 55.6036 16.3729C55.6036 15.1311 55.8324 13.9655 56.2899 12.8762C56.7692 11.7652 57.4118 10.8066 58.2179 10.0005C59.024 9.19446 59.9717 8.56268 61.061 8.10518C62.172 7.64768 63.3593 7.41893 64.6229 7.41893C65.8865 7.41893 67.052 7.65857 68.1195 8.13785C69.187 8.61714 70.102 9.27071 70.8645 10.0986C71.6488 10.9264 72.2588 11.9286 72.6945 13.105C73.1302 14.2596 73.3481 15.5123 73.3481 16.863V18.1702H61.0283C61.3768 18.9762 61.9215 19.6407 62.6622 20.1636C63.4029 20.6646 64.2743 20.9152 65.2765 20.9152C65.9954 20.9152 66.649 20.8062 67.2372 20.5884C67.8254 20.3487 68.3265 20.022 68.7404 19.608L72.237 22.7125ZM64.5249 11.7325C63.6535 11.7325 62.9018 11.9721 62.2701 12.4514C61.6383 12.9307 61.1917 13.6061 60.9302 14.4775H68.1522C67.869 13.6496 67.4006 12.9852 66.747 12.4841C66.1152 11.983 65.3745 11.7325 64.5249 11.7325ZM76.3129 25V2.125L81.6068 0.981248V14.7716L88.502 7.71303H94.4168L86.7374 15.5232L94.9397 25H88.2406L81.6068 17.2552V25H76.3129ZM101.186 25.2941C99.3562 25.2941 97.8529 24.793 96.6765 23.7909C95.5001 22.7887 94.9119 21.5034 94.9119 19.9348C94.9119 18.3009 95.5328 17.0264 96.7745 16.1114C98.0381 15.1964 99.7919 14.7389 102.036 14.7389C102.711 14.7389 103.376 14.7825 104.029 14.8696C104.683 14.9568 105.325 15.0766 105.957 15.2291V14.3795C105.957 13.508 105.674 12.8654 105.108 12.4514C104.563 12.0157 103.746 11.7979 102.657 11.7979C101.981 11.7979 101.219 11.9068 100.369 12.1246C99.5195 12.3425 98.5392 12.6911 97.4281 13.1704L95.5328 9.2816C96.927 8.64982 98.2887 8.18143 99.6176 7.87643C100.968 7.54964 102.297 7.38625 103.604 7.38625C106.001 7.38625 107.863 7.96357 109.192 9.11821C110.521 10.2511 111.186 11.8523 111.186 13.922V25H105.957V23.9543C105.26 24.4336 104.519 24.7821 103.735 25C102.973 25.1961 102.123 25.2941 101.186 25.2941ZM99.9444 19.8368C99.9444 20.3814 100.184 20.8062 100.663 21.1112C101.143 21.4162 101.807 21.5687 102.657 21.5687C103.288 21.5687 103.877 21.5034 104.421 21.3727C104.988 21.242 105.5 21.035 105.957 20.7518V18.5296C105.456 18.3989 104.944 18.3009 104.421 18.2355C103.898 18.1702 103.365 18.1375 102.82 18.1375C101.905 18.1375 101.197 18.29 100.696 18.595C100.195 18.8782 99.9444 19.2921 99.9444 19.8368Z" fill="#540423"/>
</svg>
