<svg width="144" height="18" viewBox="0 0 144 18" fill="none" xmlns="http://www.w3.org/2000/svg">
<path d="M0.994 14L0.994 4.2L5.53 4.2C6.482 4.2 7.252 4.47533 7.84 5.026C8.43733 5.56733 8.736 6.272 8.736 7.14C8.736 7.99867 8.43733 8.69867 7.84 9.24C7.24267 9.78133 6.47267 10.052 5.53 10.052L2.464 10.052L2.464 14H0.994ZM5.376 5.488L2.464 5.488L2.464 8.806L5.376 8.806C5.94533 8.806 6.398 8.65667 6.734 8.358C7.07933 8.05 7.252 7.644 7.252 7.14C7.252 6.636 7.07933 6.23467 6.734 5.936C6.398 5.63733 5.94533 5.488 5.376 5.488ZM9.29502 10.43C9.29502 9.91667 9.38835 9.436 9.57502 8.988C9.77102 8.53067 10.037 8.13867 10.373 7.812C10.709 7.476 11.101 7.21467 11.549 7.028C12.0063 6.832 12.4917 6.734 13.005 6.734C13.5183 6.734 13.999 6.832 14.447 7.028C14.9043 7.21467 15.2963 7.476 15.623 7.812C15.959 8.13867 16.2203 8.53067 16.407 8.988C16.603 9.436 16.701 9.91667 16.701 10.43C16.701 10.9527 16.603 11.4427 16.407 11.9C16.2203 12.348 15.959 12.74 15.623 13.076C15.2963 13.4027 14.9043 13.664 14.447 13.86C13.999 14.0467 13.5183 14.14 13.005 14.14C12.4917 14.14 12.0063 14.0467 11.549 13.86C11.101 13.664 10.709 13.4027 10.373 13.076C10.037 12.74 9.77102 12.348 9.57502 11.9C9.38835 11.4427 9.29502 10.9527 9.29502 10.43ZM13.005 12.908C13.649 12.908 14.195 12.67 14.643 12.194C15.1003 11.7087 15.329 11.1207 15.329 10.43C15.329 9.73933 15.1003 9.156 14.643 8.68C14.195 8.204 13.649 7.966 13.005 7.966C12.361 7.966 11.8103 8.204 11.353 8.68C10.8957 9.156 10.667 9.73933 10.667 10.43C10.667 11.1207 10.891 11.7087 11.339 12.194C11.7963 12.67 12.3517 12.908 13.005 12.908ZM20.5765 14L19.2185 14L17.2305 6.874H18.5885L19.9605 12.11L21.5985 6.874H22.8025L24.4265 12.11L25.8125 6.874H27.1285L25.1265 14L23.7825 14L22.1865 8.778L20.5765 14ZM34.166 13.188C33.7553 13.5053 33.326 13.7433 32.878 13.902C32.43 14.0513 31.94 14.126 31.408 14.126C30.8853 14.126 30.3953 14.0327 29.938 13.846C29.4807 13.65 29.084 13.3887 28.748 13.062C28.412 12.7353 28.146 12.348 27.95 11.9C27.7633 11.4427 27.67 10.9527 27.67 10.43C27.67 9.91667 27.7633 9.436 27.95 8.988C28.1367 8.54 28.3887 8.15267 28.706 7.826C29.0233 7.49933 29.4013 7.24267 29.84 7.056C30.2787 6.86 30.7453 6.762 31.24 6.762C31.7253 6.762 32.178 6.86 32.598 7.056C33.0273 7.24267 33.3913 7.504 33.69 7.84C33.998 8.16667 34.2407 8.55867 34.418 9.016C34.5953 9.47333 34.684 9.96333 34.684 10.486V10.892H29.056C29.1493 11.48 29.42 11.97 29.868 12.362C30.316 12.7447 30.848 12.936 31.464 12.936C31.8093 12.936 32.1407 12.88 32.458 12.768C32.7753 12.656 33.046 12.502 33.27 12.306L34.166 13.188ZM31.212 7.938C30.68 7.938 30.2133 8.11533 29.812 8.47C29.42 8.82467 29.1727 9.282 29.07 9.842H33.298C33.1953 9.30067 32.948 8.848 32.556 8.484C32.1733 8.12 31.7253 7.938 31.212 7.938ZM36.0174 14V6.874L37.4174 6.874V7.784C37.6321 7.43867 37.9074 7.17733 38.2434 7C38.5794 6.81333 38.9574 6.72 39.3774 6.72C39.5267 6.72 39.6574 6.72933 39.7694 6.748C39.8814 6.76667 39.9887 6.79467 40.0914 6.832V8.092C39.9607 8.04533 39.8254 8.008 39.6854 7.98C39.5454 7.952 39.4054 7.938 39.2654 7.938C38.8547 7.938 38.4861 8.05 38.1594 8.274C37.8421 8.48867 37.5947 8.81067 37.4174 9.24V14H36.0174ZM46.9492 13.188C46.5386 13.5053 46.1092 13.7433 45.6612 13.902C45.2132 14.0513 44.7232 14.126 44.1912 14.126C43.6686 14.126 43.1786 14.0327 42.7212 13.846C42.2639 13.65 41.8672 13.3887 41.5312 13.062C41.1952 12.7353 40.9292 12.348 40.7332 11.9C40.5466 11.4427 40.4532 10.9527 40.4532 10.43C40.4532 9.91667 40.5466 9.436 40.7332 8.988C40.9199 8.54 41.1719 8.15267 41.4892 7.826C41.8066 7.49933 42.1846 7.24267 42.6232 7.056C43.0619 6.86 43.5286 6.762 44.0232 6.762C44.5086 6.762 44.9612 6.86 45.3812 7.056C45.8106 7.24267 46.1746 7.504 46.4732 7.84C46.7812 8.16667 47.0239 8.55867 47.2012 9.016C47.3786 9.47333 47.4672 9.96333 47.4672 10.486V10.892H41.8392C41.9326 11.48 42.2032 11.97 42.6512 12.362C43.0992 12.7447 43.6312 12.936 44.2472 12.936C44.5926 12.936 44.9239 12.88 45.2412 12.768C45.5586 12.656 45.8292 12.502 46.0532 12.306L46.9492 13.188ZM43.9952 7.938C43.4632 7.938 42.9966 8.11533 42.5952 8.47C42.2032 8.82467 41.9559 9.282 41.8532 9.842H46.0812C45.9786 9.30067 45.7312 8.848 45.3392 8.484C44.9566 8.12 44.5086 7.938 43.9952 7.938ZM54.288 14V13.328C53.9893 13.58 53.6533 13.776 53.28 13.916C52.9066 14.0467 52.5146 14.112 52.104 14.112C51.6 14.112 51.1286 14.0187 50.69 13.832C50.2513 13.636 49.8686 13.3747 49.542 13.048C49.2246 12.7213 48.9726 12.334 48.786 11.886C48.5993 11.4287 48.506 10.9433 48.506 10.43C48.506 9.91667 48.5993 9.436 48.786 8.988C48.9726 8.54 49.2246 8.15267 49.542 7.826C49.8686 7.49933 50.256 7.24267 50.704 7.056C51.152 6.86 51.628 6.762 52.132 6.762C52.524 6.762 52.902 6.82267 53.266 6.944C53.63 7.06533 53.966 7.238 54.274 7.462V4.2L55.674 3.892V14H54.288ZM49.878 10.416C49.878 11.116 50.1113 11.704 50.578 12.18C51.0446 12.656 51.6186 12.894 52.3 12.894C52.7013 12.894 53.07 12.8193 53.406 12.67C53.7513 12.5207 54.0406 12.3107 54.274 12.04V8.806C54.0406 8.54467 53.7513 8.33933 53.406 8.19C53.0606 8.04067 52.692 7.966 52.3 7.966C51.6186 7.966 51.0446 8.19933 50.578 8.666C50.1113 9.13267 49.878 9.716 49.878 10.416ZM67.4256 10.43C67.4256 10.9433 67.3323 11.4287 67.1456 11.886C66.959 12.334 66.7023 12.7213 66.3756 13.048C66.0583 13.3747 65.6756 13.636 65.2276 13.832C64.7796 14.0187 64.3036 14.112 63.7996 14.112C63.3983 14.112 63.0156 14.0513 62.6516 13.93C62.2876 13.8087 61.9516 13.6313 61.6436 13.398V14H60.2576V4.2L61.6576 3.892V7.546C61.947 7.294 62.2783 7.10267 62.6516 6.972C63.025 6.832 63.417 6.762 63.8276 6.762C64.3316 6.762 64.803 6.86 65.2416 7.056C65.6803 7.24267 66.0583 7.49933 66.3756 7.826C66.7023 8.15267 66.959 8.54 67.1456 8.988C67.3323 9.436 67.4256 9.91667 67.4256 10.43ZM63.6456 7.98C63.2443 7.98 62.871 8.05467 62.5256 8.204C62.1803 8.35333 61.891 8.56333 61.6576 8.834V12.054C61.8816 12.3153 62.1663 12.5207 62.5116 12.67C62.8663 12.8193 63.2443 12.894 63.6456 12.894C64.327 12.894 64.8963 12.6607 65.3536 12.194C65.8203 11.7273 66.0536 11.144 66.0536 10.444C66.0536 9.744 65.8203 9.16067 65.3536 8.694C64.887 8.218 64.3176 7.98 63.6456 7.98ZM70.2661 14.672L70.5461 14.028L67.7041 6.874L69.2441 6.874L71.3301 12.32L73.6261 6.874L75.1381 6.874L71.6941 14.854C71.3674 15.61 70.9941 16.1513 70.5741 16.478C70.1541 16.814 69.6174 16.982 68.9641 16.982C68.8148 16.982 68.6748 16.9727 68.5441 16.954C68.4228 16.9447 68.3154 16.926 68.2221 16.898V15.666C68.3154 15.6847 68.4088 15.6987 68.5021 15.708C68.6048 15.7173 68.7214 15.722 68.8521 15.722C69.1694 15.722 69.4448 15.6333 69.6781 15.456C69.9208 15.288 70.1168 15.0267 70.2661 14.672Z" fill="#540423"/>
<path d="M102.396 14V4.2L109.97 4.2V5.964L104.426 5.964V8.274L108.108 8.274V9.982L104.426 9.982V14H102.396ZM112.389 6.706V10.948C112.389 11.4147 112.525 11.788 112.795 12.068C113.075 12.348 113.444 12.488 113.901 12.488C114.228 12.488 114.517 12.4273 114.769 12.306C115.031 12.1753 115.245 11.9933 115.413 11.76V6.706H117.331V14H115.413V13.412C115.133 13.6453 114.821 13.8273 114.475 13.958C114.13 14.0793 113.757 14.14 113.355 14.14C112.515 14.14 111.825 13.8693 111.283 13.328C110.742 12.7773 110.471 12.0773 110.471 11.228V6.706H112.389ZM125.364 13.09C124.916 13.454 124.454 13.72 123.978 13.888C123.512 14.056 122.989 14.14 122.41 14.14C121.86 14.14 121.342 14.042 120.856 13.846C120.38 13.65 119.965 13.384 119.61 13.048C119.265 12.712 118.99 12.3153 118.784 11.858C118.588 11.3913 118.49 10.892 118.49 10.36C118.49 9.83733 118.584 9.34733 118.77 8.89C118.966 8.42333 119.232 8.022 119.568 7.686C119.904 7.34067 120.301 7.07 120.758 6.874C121.225 6.678 121.72 6.58 122.242 6.58C122.756 6.58 123.232 6.68267 123.67 6.888C124.118 7.084 124.501 7.35467 124.818 7.7C125.145 8.04533 125.397 8.46067 125.574 8.946C125.761 9.422 125.854 9.94 125.854 10.5V11.004L120.422 11.004C120.553 11.4613 120.805 11.83 121.178 12.11C121.552 12.39 121.99 12.53 122.494 12.53C122.812 12.53 123.11 12.4787 123.39 12.376C123.67 12.2733 123.908 12.1287 124.104 11.942L125.364 13.09ZM122.2 8.162C121.762 8.162 121.384 8.29733 121.066 8.568C120.749 8.82933 120.53 9.184 120.408 9.632H123.978C123.857 9.20267 123.633 8.85267 123.306 8.582C122.989 8.302 122.62 8.162 122.2 8.162ZM128.947 3.78V14H127.029V4.2L128.947 3.78ZM136.985 13.09C136.537 13.454 136.075 13.72 135.599 13.888C135.133 14.056 134.61 14.14 134.031 14.14C133.481 14.14 132.963 14.042 132.477 13.846C132.001 13.65 131.586 13.384 131.231 13.048C130.886 12.712 130.611 12.3153 130.405 11.858C130.209 11.3913 130.111 10.892 130.111 10.36C130.111 9.83733 130.205 9.34733 130.391 8.89C130.587 8.42333 130.853 8.022 131.189 7.686C131.525 7.34067 131.922 7.07 132.379 6.874C132.846 6.678 133.341 6.58 133.863 6.58C134.377 6.58 134.853 6.68267 135.291 6.888C135.739 7.084 136.122 7.35467 136.439 7.7C136.766 8.04533 137.018 8.46067 137.195 8.946C137.382 9.422 137.475 9.94 137.475 10.5V11.004L132.043 11.004C132.174 11.4613 132.426 11.83 132.799 12.11C133.173 12.39 133.611 12.53 134.115 12.53C134.433 12.53 134.731 12.4787 135.011 12.376C135.291 12.2733 135.529 12.1287 135.725 11.942L136.985 13.09ZM133.821 8.162C133.383 8.162 133.005 8.29733 132.687 8.568C132.37 8.82933 132.151 9.184 132.029 9.632H135.599C135.478 9.20267 135.254 8.85267 134.927 8.582C134.61 8.302 134.241 8.162 133.821 8.162ZM138.651 14V6.706L140.569 6.706V7.504C140.802 7.18667 141.082 6.94867 141.409 6.79C141.745 6.622 142.113 6.538 142.515 6.538C142.701 6.54733 142.855 6.566 142.977 6.594C143.107 6.61267 143.219 6.65 143.313 6.706V8.386C143.173 8.32067 143.019 8.274 142.851 8.246C142.683 8.20867 142.51 8.19 142.333 8.19C141.959 8.19 141.614 8.28333 141.297 8.47C140.989 8.65667 140.746 8.92733 140.569 9.282V14H138.651Z" fill="black"/>
<path d="M98.3096 8.78859C98.3096 9.70686 96.836 10.38 96.5681 11.2085C96.2905 12.0672 97.0792 13.4802 96.5613 14.195C96.0383 14.917 94.4535 14.5975 93.735 15.1227C93.0234 15.6429 92.8391 17.2587 91.9843 17.5376C91.1596 17.8065 90.0689 16.6169 89.1548 16.6169C88.2407 16.6169 87.1499 17.8065 86.3252 17.5374C85.4704 17.2587 85.2861 15.6429 84.5746 15.1225C83.856 14.5971 82.2709 14.9168 81.7482 14.1948C81.2304 13.48 82.0191 12.067 81.7414 11.2083C81.4736 10.38 80 9.70686 80 8.78859C80 7.87032 81.4736 7.19716 81.7414 6.36865C82.0191 5.50994 81.2304 4.09702 81.7482 3.3822C82.2713 2.66014 83.856 2.97972 84.5746 2.45447C85.2861 1.93426 85.4704 0.318485 86.3252 0.0395623C87.1499 -0.229298 88.2407 0.960248 89.1548 0.960248C90.0689 0.960248 91.1596 -0.229298 91.9843 0.0397637C92.8391 0.318485 93.0234 1.93426 93.735 2.45468C94.4535 2.98012 96.0387 2.66035 96.5613 3.3824C97.0792 4.09722 96.2905 5.51014 96.5681 6.36885C96.836 7.19716 98.3096 7.87032 98.3096 8.78859Z" fill="black"/>
<path d="M89.2689 4.29176L86.6333 9.25302C86.6044 9.30749 86.5901 9.36851 86.5917 9.43016C86.5932 9.49181 86.6107 9.55201 86.6424 9.60492C86.674 9.65783 86.7188 9.70167 86.7723 9.73217C86.8259 9.76268 86.8864 9.77882 86.948 9.77904H88.3334C88.3804 9.77901 88.4269 9.78824 88.4703 9.80622C88.5137 9.82419 88.5531 9.85055 88.5863 9.88378C88.6195 9.91701 88.6459 9.95647 88.6639 9.9999C88.6819 10.0433 88.6911 10.0899 88.6911 10.1369V13.1174C88.6911 13.4859 89.1804 13.614 89.3605 13.2924L92.1121 8.37862C92.1426 8.32417 92.1583 8.2627 92.1576 8.20031C92.157 8.13792 92.1401 8.07677 92.1087 8.02292C92.0772 7.96908 92.0322 7.92441 91.9781 7.89333C91.9241 7.86225 91.8628 7.84586 91.8005 7.84576L90.2986 7.84415C90.2039 7.84399 90.1131 7.80622 90.0461 7.73913C89.9792 7.67205 89.9416 7.58112 89.9415 7.48629V4.45991C89.9421 4.08695 89.4438 3.9627 89.2689 4.29176Z" fill="white"/>
</svg>
